<?xml version="1.0" encoding="utf-8"?>
<svg viewBox="0 0 24 24" xmlns="http://www.w3.org/2000/svg">
  <rect width="23.714" height="23.714" fill-opacity="0" style=""/>
  <polygon style="fill: rgb(255, 255, 255); stroke-miterlimit: 1;" points="5.861 1.887 5.749 14.918 10.016 14.9 9.89 18.188 13.948 14.923 17.348 14.992 20.636 11.537 20.468 1.256 20.343 1.308"/>
  <path d="M 11.489 4.715 L 13.168 4.715 L 13.168 9.74 L 11.489 9.74 M 16.103 4.715 L 17.782 4.715 L 17.782 9.74 L 16.103 9.74 M 6.042 0.101 L 1.85 4.292 L 1.85 19.39 L 6.875 19.39 L 6.875 23.582 L 11.078 19.39 L 14.424 19.39 L 21.973 11.841 L 21.973 0.101 M 20.294 11.008 L 16.948 14.354 L 13.591 14.354 L 10.656 17.289 L 10.656 14.354 L 6.875 14.354 L 6.875 1.78 L 20.294 1.78 Z" fill="#6441a5" style=""/>
</svg>