<?xml version="1.0" encoding="utf-8"?>
<svg viewBox="0 0 24 24" xmlns="http://www.w3.org/2000/svg">
  <rect width="23.83" height="23.83" fill-opacity="0" style=""/>
  <path d="M 23.864 5.046 C 22.987 5.445 22.043 5.706 21.064 5.832 C 22.066 5.228 22.84 4.272 23.204 3.123 C 22.259 3.692 21.212 4.09 20.108 4.318 C 19.209 3.339 17.946 2.77 16.512 2.77 C 13.837 2.77 11.652 4.955 11.652 7.653 C 11.652 8.04 11.697 8.415 11.777 8.768 C 7.725 8.563 4.118 6.617 1.716 3.669 C 1.295 4.386 1.056 5.228 1.056 6.116 C 1.056 7.812 1.91 9.314 3.23 10.168 C 2.422 10.168 1.671 9.94 1.011 9.599 L 1.011 9.633 C 1.011 12 2.695 13.98 4.926 14.424 C 4.21 14.62 3.458 14.647 2.729 14.504 C 3.363 16.493 5.194 17.858 7.282 17.896 C 5.556 19.262 3.417 20 1.215 19.99 C 0.829 19.99 0.442 19.967 0.055 19.921 C 2.217 21.31 4.789 22.118 7.543 22.118 C 16.512 22.118 21.44 14.675 21.44 8.222 C 21.44 8.005 21.44 7.801 21.428 7.584 C 22.384 6.901 23.204 6.037 23.864 5.046 Z" fill="#55acee" style=""/>
</svg>