<?xml version="1.0" encoding="utf-8"?>
<svg viewBox="0 0 24 24" width="1em" height="1em"  xmlns="http://www.w3.org/2000/svg">
  <rect width="23.83" height="23.83" fill-opacity="0" style=""/>
  <rect width="24.102" height="24.102" style="fill: rgb(10, 10, 10); paint-order: fill; fill-opacity: 0;"/>
  <rect x="5.517" y="7.177" width="14.339" height="10.196" style="fill: rgb(255, 255, 255);"/>
  <path d="M 9.706 15.518 L 15.811 11.989 L 9.706 8.461 L 9.706 15.518 M 23.303 6.308 C 23.456 6.861 23.562 7.602 23.633 8.543 C 23.715 9.484 23.75 10.296 23.75 11.001 L 23.821 11.989 C 23.821 14.565 23.633 16.459 23.303 17.671 C 23.009 18.729 22.327 19.412 21.269 19.706 C 20.716 19.859 19.704 19.965 18.151 20.035 C 16.622 20.117 15.222 20.153 13.929 20.153 L 12.058 20.223 C 7.13 20.223 4.06 20.035 2.848 19.706 C 1.789 19.412 1.107 18.729 0.813 17.671 C 0.66 17.118 0.554 16.377 0.484 15.436 C 0.402 14.495 0.366 13.683 0.366 12.978 L 0.296 11.989 C 0.296 9.413 0.484 7.52 0.813 6.308 C 1.107 5.249 1.789 4.567 2.848 4.273 C 3.401 4.12 4.413 4.014 5.965 3.944 C 7.494 3.861 8.894 3.826 10.188 3.826 L 12.058 3.756 C 16.987 3.756 20.057 3.944 21.269 4.273 C 22.327 4.567 23.009 5.249 23.303 6.308 Z" fill="#cd201f" style=""/>
</svg>